<?xml version="1.0" standalone="no"?>
<!DOCTYPE svg PUBLIC "-//W3C//DTD SVG 20010904//EN"
 "http://www.w3.org/TR/2001/REC-SVG-20010904/DTD/svg10.dtd">
<svg version="1.0" xmlns="http://www.w3.org/2000/svg"
 viewBox="0 0 2600.000000 2600.000000"
 preserveAspectRatio="xMidYMid meet">
<metadata>
Created by potrace 1.15, written by Peter Selinger 2001-2017
</metadata>
<g transform="translate(0.000000,2600.000000) scale(0.100000,-0.100000)"
fill="#ffffff" stroke="none">
<path d="M9070 20079 c-333 -56 -608 -322 -675 -654 -14 -70 -15 -163 -13
-718 l3 -637 -215 0 c-221 0 -338 -9 -470 -36 -207 -43 -445 -147 -614 -268
-347 -249 -570 -590 -668 -1021 l-22 -100 -3 -1477 -4 -1478 -217 0 c-335 0
-480 -17 -645 -76 -166 -60 -302 -148 -433 -278 -210 -210 -319 -449 -344
-755 -13 -153 -13 -3058 0 -3211 33 -397 240 -734 572 -931 l86 -51 5 -737 c4
-715 5 -739 26 -836 92 -416 396 -757 787 -884 164 -53 199 -56 594 -56 351 0
369 1 460 24 179 45 310 105 440 202 198 148 343 347 421 577 57 169 59 193
59 918 l0 664 3560 0 3560 0 0 -652 c0 -715 2 -752 59 -926 58 -175 150 -324
290 -463 149 -150 308 -244 511 -302 143 -42 246 -49 595 -44 277 4 332 7 405
25 499 119 858 518 920 1022 6 51 10 358 10 775 l0 691 68 38 c298 172 490
435 579 793 15 62 17 206 20 1688 3 1055 0 1653 -6 1715 -20 183 -79 357 -173
507 -62 100 -201 251 -296 323 -84 63 -232 139 -337 174 -150 49 -212 56 -527
63 l-298 6 0 1351 c0 830 -4 1403 -10 1486 -23 292 -107 548 -258 780 -202
312 -496 544 -838 663 -218 76 -369 97 -687 97 l-213 0 8 73 c5 39 7 333 5
652 -3 505 -6 588 -21 645 -43 165 -102 274 -210 387 -110 117 -214 180 -373
230 l-88 28 -2665 1 c-1563 1 -2688 -2 -2720 -7z m1440 -859 l0 -190 -222 -2
-223 -3 -3 -772 -2 -773 -215 0 -215 0 -2 773 -3 772 -217 3 -218 2 0 190 0
190 660 0 660 0 0 -190z m1330 -762 c134 -524 245 -959 248 -965 3 -10 -45
-13 -222 -13 l-225 0 -10 38 c-6 20 -31 121 -57 225 l-46 187 -224 0 -223 0
-9 -32 c-5 -18 -29 -120 -53 -225 l-44 -193 -221 0 -222 0 14 48 c20 70 494
1871 494 1877 0 3 125 5 278 5 l278 0 244 -952z m956 755 c43 -109 94 -245
115 -303 67 -189 52 -193 129 40 37 113 89 262 115 333 l47 127 234 0 c129 0
234 -1 234 -3 0 -2 -103 -217 -229 -477 l-229 -474 244 -488 244 -488 -242 0
-243 0 -44 108 c-24 59 -86 210 -137 335 -50 126 -94 231 -97 233 -3 3 -19
-39 -36 -93 -17 -54 -71 -206 -120 -338 l-89 -240 -236 -3 -237 -2 15 27 c45
89 446 944 446 953 0 6 -93 208 -206 448 -113 240 -212 452 -220 470 l-14 32
239 0 239 0 78 -197z m1534 -768 l0 -965 -215 0 -215 0 0 965 0 965 215 0 215
0 0 -965z m1295 -1656 c111 -41 201 -137 237 -251 17 -57 18 -126 18 -1454 l0
-1394 -4120 0 -4120 0 2 1408 3 1407 23 55 c46 113 130 195 237 232 47 16 269
17 3857 18 l3807 0 56 -21z m-8309 -4614 c414 -71 763 -373 893 -771 40 -125
55 -220 55 -359 0 -316 -110 -582 -333 -806 -137 -137 -276 -224 -452 -283
-192 -64 -446 -73 -641 -23 -550 143 -916 664 -859 1223 26 261 131 489 310
677 171 179 369 289 606 337 114 23 302 25 421 5z m9379 -19 c195 -52 375
-157 520 -301 166 -166 279 -383 319 -614 63 -367 -56 -744 -319 -1006 -167
-167 -383 -279 -614 -319 -373 -64 -746 56 -1011 324 -142 143 -245 323 -297
517 -25 90 -27 114 -27 288 0 174 2 198 27 288 86 322 307 591 604 741 176 88
315 117 538 112 134 -3 176 -8 260 -30z m-2770 -559 c189 -55 350 -187 435
-357 56 -113 65 -154 65 -305 0 -111 -4 -151 -19 -195 -80 -233 -240 -392
-466 -462 l-75 -23 -2095 0 c-1734 0 -2104 2 -2150 14 -327 80 -548 377 -527
706 11 177 73 313 201 441 112 111 230 171 381 194 28 4 982 7 2120 6 1941 -1
2074 -2 2130 -19z"/>
<path d="M11296 19039 c-3 -8 -19 -88 -36 -179 -29 -152 -113 -542 -126 -582
-5 -17 7 -18 165 -18 100 0 171 4 171 9 0 6 -16 83 -36 173 -19 90 -55 262
-80 383 -25 120 -47 221 -49 224 -3 2 -7 -2 -9 -10z"/>
<path d="M4795 15304 c-38 -8 -110 -35 -160 -59 -156 -76 -254 -175 -330 -330
-99 -204 -99 -415 0 -620 90 -185 239 -312 445 -377 73 -22 86 -23 415 -23
378 0 396 2 530 65 190 88 325 243 387 440 19 64 23 96 22 210 0 117 -4 145
-26 213 -83 249 -285 428 -544 482 -102 21 -637 20 -739 -1z"/>
<path d="M17985 15305 c-268 -59 -464 -240 -546 -505 -34 -107 -34 -283 0
-390 40 -130 86 -206 186 -305 97 -98 172 -144 300 -186 66 -21 90 -23 388
-27 264 -3 331 -1 397 12 152 31 273 97 380 206 78 80 131 167 167 275 24 72
27 95 27 220 0 125 -3 148 -27 220 -84 251 -281 426 -539 479 -101 21 -640 22
-733 1z"/>
</g>
</svg>
